<svg xmlns="http://www.w3.org/2000/svg" width="981.001953125" height="923.2041015625" viewBox="-354.90069580078125 -354.9061584472656 981.001953125 923.2041015625"><title>Neo4j Graph Visualization</title><desc>Created using Neo4j (http://www.neo4j.com/)</desc><g class="layer relationships"><g class="relationship" transform="translate(138.33691924682566 103.96988154600223) rotate(427.969607310533)"><path class="outline" fill="#A5ABB6" stroke="none" d="M 32.5 0.5 L 52.66170821676235 0.5 L 52.66170821676235 -0.5 L 32.5 -0.5 Z M 108.89217696676235 0.5 L 129.0538851835247 0.5 L 129.0538851835247 3.5 L 136.0538851835247 0 L 129.0538851835247 -3.5 L 129.0538851835247 -0.5 L 108.89217696676235 -0.5 Z"/><text text-anchor="middle" pointer-events="none" font-size="8px" fill="#000000" x="80.77694259176235" y="3" font-family="sans-serif">PURCHASED</text></g><g class="relationship" transform="translate(138.33691924682566 103.96988154600223) rotate(349.51785686668904)"><path class="outline" fill="#A5ABB6" stroke="none" d="M 32.5 0.5 L 71.77733982152266 0.5 L 71.77733982152266 -0.5 L 32.5 -0.5 Z M 128.00780857152267 0.5 L 167.28514839304532 0.5 L 167.28514839304532 3.5 L 174.28514839304532 0 L 167.28514839304532 -3.5 L 167.28514839304532 -0.5 L 128.00780857152267 -0.5 Z"/><text text-anchor="middle" pointer-events="none" font-size="8px" fill="#000000" x="99.89257419652266" y="3" font-family="sans-serif">PURCHASED</text></g><g class="relationship" transform="translate(138.33691924682566 103.96988154600223) rotate(234.9741164652633)"><path class="outline" fill="#A5ABB6" stroke="none" d="M 32.5 0.5 L 60.51812145664057 0.5 L 60.51812145664057 -0.5 L 32.5 -0.5 Z M 116.74859020664057 0.5 L 144.76671166328114 0.5 L 144.76671166328114 3.5 L 151.76671166328114 0 L 144.76671166328114 -3.5 L 144.76671166328114 -0.5 L 116.74859020664057 -0.5 Z"/><text text-anchor="middle" pointer-events="none" font-size="8px" fill="#000000" x="88.63335583164057" y="3" transform="rotate(180 88.63335583164057 0)" font-family="sans-serif">PURCHASED</text></g><g class="relationship" transform="translate(138.33691924682566 103.96988154600223) rotate(309.56211938144577)"><path class="outline" fill="#A5ABB6" stroke="none" d="M 32.5 0.5 L 38.17839852767776 0.5 L 38.17839852767776 -0.5 L 32.5 -0.5 Z M 94.40886727767776 0.5 L 100.08726580535551 0.5 L 100.08726580535551 3.5 L 107.08726580535551 0 L 100.08726580535551 -3.5 L 100.08726580535551 -0.5 L 94.40886727767776 -0.5 Z"/><text text-anchor="middle" pointer-events="none" font-size="8px" fill="#000000" x="66.29363290267776" y="3" font-family="sans-serif">PURCHASED</text></g><g class="relationship" transform="translate(138.33691924682566 103.96988154600223) rotate(190.7892933425095)"><path class="outline" fill="#A5ABB6" stroke="none" d="M 32.5 0.5 L 55.10475239985662 0.5 L 55.10475239985662 -0.5 L 32.5 -0.5 Z M 111.33522114985662 0.5 L 133.93997354971324 0.5 L 133.93997354971324 3.5 L 140.93997354971324 0 L 133.93997354971324 -3.5 L 133.93997354971324 -0.5 L 111.33522114985662 -0.5 Z"/><text text-anchor="middle" pointer-events="none" font-size="8px" fill="#000000" x="83.21998677485662" y="3" transform="rotate(180 83.21998677485662 0)" font-family="sans-serif">PURCHASED</text></g><g class="relationship" transform="translate(138.33691924682566 103.96988154600223) rotate(481.6540610663711)"><path class="outline" fill="#A5ABB6" stroke="none" d="M 32.5 0.5 L 51.59532920261452 0.5 L 51.59532920261452 -0.5 L 32.5 -0.5 Z M 107.82579795261452 0.5 L 126.92112715522904 0.5 L 126.92112715522904 3.5 L 133.92112715522904 0 L 126.92112715522904 -3.5 L 126.92112715522904 -0.5 L 107.82579795261452 -0.5 Z"/><text text-anchor="middle" pointer-events="none" font-size="8px" fill="#000000" x="79.71056357761452" y="3" transform="rotate(180 79.71056357761452 0)" font-family="sans-serif">PURCHASED</text></g><g class="relationship" transform="translate(138.33691924682566 103.96988154600223) rotate(516.3455112692395)"><path class="outline" fill="#A5ABB6" stroke="none" d="M 32.5 0.5 L 54.68921382491955 0.5 L 54.68921382491955 -0.5 L 32.5 -0.5 Z M 110.91968257491955 0.5 L 133.1088963998391 0.5 L 133.1088963998391 3.5 L 140.1088963998391 0 L 133.1088963998391 -3.5 L 133.1088963998391 -0.5 L 110.91968257491955 -0.5 Z"/><text text-anchor="middle" pointer-events="none" font-size="8px" fill="#000000" x="82.80444819991955" y="3" transform="rotate(180 82.80444819991955 0)" font-family="sans-serif">PURCHASED</text></g><g class="relationship" transform="translate(198.7479686881458 253.26441941697166) rotate(420.2486435894606)"><path class="outline" fill="#A5ABB6" stroke="none" d="M 25 0.5 L 42.94856623182548 0.5 L 42.94856623182548 -0.5 L 25 -0.5 Z M 83.17512873182548 0.5 L 101.12369496365096 0.5 L 101.12369496365096 3.5 L 108.12369496365096 0 L 101.12369496365096 -3.5 L 101.12369496365096 -0.5 L 83.17512873182548 -0.5 Z"/><text text-anchor="middle" pointer-events="none" font-size="8px" fill="#000000" x="63.06184748182548" y="3" font-family="sans-serif">ORDERS</text></g><g class="relationship" transform="translate(198.7479686881458 253.26441941697166) rotate(475.01479505085223)"><path class="outline" fill="#A5ABB6" stroke="none" d="M 25 0.5 L 49.5624549104642 0.5 L 49.5624549104642 -0.5 L 25 -0.5 Z M 89.7890174104642 0.5 L 114.3514723209284 0.5 L 114.3514723209284 3.5 L 121.3514723209284 0 L 114.3514723209284 -3.5 L 114.3514723209284 -0.5 L 89.7890174104642 -0.5 Z"/><text text-anchor="middle" pointer-events="none" font-size="8px" fill="#000000" x="69.6757361604642" y="3" transform="rotate(180 69.6757361604642 0)" font-family="sans-serif">ORDERS</text></g><g class="relationship" transform="translate(198.7479686881458 253.26441941697166) rotate(333.17262597798117)"><path class="outline" fill="#A5ABB6" stroke="none" d="M 25 0.5 L 38.8116440559475 0.5 L 38.8116440559475 -0.5 L 25 -0.5 Z M 79.0382065559475 0.5 L 92.849850611895 0.5 L 92.849850611895 3.5 L 99.849850611895 0 L 92.849850611895 -3.5 L 92.849850611895 -0.5 L 79.0382065559475 -0.5 Z"/><text text-anchor="middle" pointer-events="none" font-size="8px" fill="#000000" x="58.9249253059475" y="3" font-family="sans-serif">ORDERS</text></g><g class="relationship" transform="translate(268.53065723926477 375.3520926842081) rotate(366.52146998746247)"><path class="outline" fill="#A5ABB6" stroke="none" d="M 32.5 0.5 L 38.9316564839389 0.5 L 38.9316564839389 -0.5 L 32.5 -0.5 Z M 81.0957189839389 0.5 L 87.5273754678778 0.5 L 87.5273754678778 3.5 L 94.5273754678778 0 L 87.5273754678778 -3.5 L 87.5273754678778 -0.5 L 81.0957189839389 -0.5 Z"/><text text-anchor="middle" pointer-events="none" font-size="8px" fill="#000000" x="60.0136877339389" y="3" font-family="sans-serif">PART_OF</text></g><g class="relationship" transform="translate(302.2140629081282 507.35736991041233) rotate(255.68545816365304)"><path class="outline" fill="#A5ABB6" stroke="none" d="M 32.5 0.5 L 42.05302817205812 0.5 L 42.05302817205812 -0.5 L 32.5 -0.5 Z M 87.18193442205812 0.5 L 96.73496259411624 0.5 L 96.73496259411624 3.5 L 103.73496259411624 0 L 96.73496259411624 -3.5 L 96.73496259411624 -0.5 L 87.18193442205812 -0.5 Z"/><text text-anchor="middle" pointer-events="none" font-size="8px" fill="#000000" x="64.61748129705812" y="3" transform="rotate(180 64.61748129705812 0)" font-family="sans-serif">SUPPLIES</text></g><g class="relationship" transform="translate(133.69152336279618 392.68441244862834) rotate(503.08905124706934)"><path class="outline" fill="#A5ABB6" stroke="none" d="M 32.5 0.5 L 45.48740025852307 0.5 L 45.48740025852307 -0.5 L 32.5 -0.5 Z M 87.65146275852307 0.5 L 100.63886301704613 0.5 L 100.63886301704613 3.5 L 107.63886301704613 0 L 100.63886301704613 -3.5 L 100.63886301704613 -0.5 L 87.65146275852307 -0.5 Z"/><text text-anchor="middle" pointer-events="none" font-size="8px" fill="#000000" x="66.56943150852307" y="3" transform="rotate(180 66.56943150852307 0)" font-family="sans-serif">PART_OF</text></g><g class="relationship" transform="translate(129.2603147421576 531.797929043524) rotate(271.82443620832794)"><path class="outline" fill="#A5ABB6" stroke="none" d="M 32.5 0.5 L 43.527583253521684 0.5 L 43.527583253521684 -0.5 L 32.5 -0.5 Z M 88.65648950352168 0.5 L 99.68407275704337 0.5 L 99.68407275704337 3.5 L 106.68407275704337 0 L 99.68407275704337 -3.5 L 99.68407275704337 -0.5 L 88.65648950352168 -0.5 Z"/><text text-anchor="middle" pointer-events="none" font-size="8px" fill="#000000" x="66.09203637852168" y="3" font-family="sans-serif">SUPPLIES</text></g><g class="relationship" transform="translate(316.853044883145 193.53441076165376) rotate(430.1777467192638)"><path class="outline" fill="#A5ABB6" stroke="none" d="M 32.5 0.5 L 83.01768726271705 0.5 L 83.01768726271705 -0.5 L 32.5 -0.5 Z M 125.18174976271705 0.5 L 175.6994370254341 0.5 L 175.6994370254341 3.5 L 182.6994370254341 0 L 175.6994370254341 -3.5 L 175.6994370254341 -0.5 L 125.18174976271705 -0.5 Z"/><text text-anchor="middle" pointer-events="none" font-size="8px" fill="#000000" x="104.09971851271705" y="3" font-family="sans-serif">PART_OF</text></g><g class="relationship" transform="translate(501.2273392687697 340.601437658388) rotate(218.57777884472966)"><path class="outline" fill="#A5ABB6" stroke="none" d="M 32.5 0.5 L 91.85775728343171 0.5 L 91.85775728343171 -0.5 L 32.5 -0.5 Z M 136.9866635334317 0.5 L 196.34442081686342 0.5 L 196.34442081686342 3.5 L 203.34442081686342 0 L 196.34442081686342 -3.5 L 196.34442081686342 -0.5 L 136.9866635334317 -0.5 Z"/><text text-anchor="middle" pointer-events="none" font-size="8px" fill="#000000" x="114.42221040843171" y="3" transform="rotate(180 114.42221040843171 0)" font-family="sans-serif">SUPPLIES</text></g><g class="relationship" transform="translate(334.2963284372349 67.71411897253174) rotate(382.019666776539)"><path class="outline" fill="#A5ABB6" stroke="none" d="M 25 0.5 L 40.10556060472359 0.5 L 40.10556060472359 -0.5 L 25 -0.5 Z M 80.33212310472359 0.5 L 95.43768370944719 0.5 L 95.43768370944719 3.5 L 102.43768370944719 0 L 95.43768370944719 -3.5 L 95.43768370944719 -0.5 L 80.33212310472359 -0.5 Z"/><text text-anchor="middle" pointer-events="none" font-size="8px" fill="#000000" x="60.21884185472359" y="3" font-family="sans-serif">ORDERS</text></g><g class="relationship" transform="translate(334.2963284372349 67.71411897253174) rotate(457.8929744754259)"><path class="outline" fill="#A5ABB6" stroke="none" d="M 25 0.5 L 36.14855616446981 0.5 L 36.14855616446981 -0.5 L 25 -0.5 Z M 76.37511866446981 0.5 L 87.52367482893962 0.5 L 87.52367482893962 3.5 L 94.52367482893962 0 L 87.52367482893962 -3.5 L 87.52367482893962 -0.5 L 76.37511866446981 -0.5 Z"/><text text-anchor="middle" pointer-events="none" font-size="8px" fill="#000000" x="56.26183741446981" y="3" transform="rotate(180 56.26183741446981 0)" font-family="sans-serif">ORDERS</text></g><g class="relationship" transform="translate(334.2963284372349 67.71411897253174) rotate(320.4513519797638)"><path class="outline" fill="#A5ABB6" stroke="none" d="M 25 0.5 L 41.20728982247408 0.5 L 41.20728982247408 -0.5 L 25 -0.5 Z M 81.43385232247408 0.5 L 97.64114214494816 0.5 L 97.64114214494816 3.5 L 104.64114214494816 0 L 97.64114214494816 -3.5 L 97.64114214494816 -0.5 L 81.43385232247408 -0.5 Z"/><text text-anchor="middle" pointer-events="none" font-size="8px" fill="#000000" x="61.32057107247408" y="3" font-family="sans-serif">ORDERS</text></g><g class="relationship" transform="translate(459.3910119866134 118.30560672048836) rotate(401.53877556535986)"><path class="outline" fill="#A5ABB6" stroke="none" d="M 32.5 0.5 L 41.24051913296273 0.5 L 41.24051913296273 -0.5 L 32.5 -0.5 Z M 83.40458163296273 0.5 L 92.14510076592546 0.5 L 92.14510076592546 3.5 L 99.14510076592546 0 L 92.14510076592546 -3.5 L 92.14510076592546 -0.5 L 83.40458163296273 -0.5 Z"/><text text-anchor="middle" pointer-events="none" font-size="8px" fill="#000000" x="62.32255038296273" y="3" font-family="sans-serif">PART_OF</text></g><g class="relationship" transform="translate(589.6012699371184 98.11307580133216) rotate(531.1849954278789)"><path class="outline" fill="#A5ABB6" stroke="none" d="M 32.5 0.5 L 39.81887097992457 0.5 L 39.81887097992457 -0.5 L 32.5 -0.5 Z M 84.94777722992457 0.5 L 92.26664820984914 0.5 L 92.26664820984914 3.5 L 99.26664820984914 0 L 92.26664820984914 -3.5 L 92.26664820984914 -0.5 L 84.94777722992457 -0.5 Z"/><text text-anchor="middle" pointer-events="none" font-size="8px" fill="#000000" x="62.38332410492457" y="3" transform="rotate(180 62.38332410492457 0)" font-family="sans-serif">SUPPLIES</text></g><g class="relationship" transform="translate(440.0437006447795 -19.608192838481923) rotate(268.3202458026268)"><path class="outline" fill="#A5ABB6" stroke="none" d="M 32.5 0.5 L 39.51453641177613 0.5 L 39.51453641177613 -0.5 L 32.5 -0.5 Z M 81.67859891177613 0.5 L 88.69313532355226 0.5 L 88.69313532355226 3.5 L 95.69313532355226 0 L 88.69313532355226 -3.5 L 88.69313532355226 -0.5 L 81.67859891177613 -0.5 Z"/><text text-anchor="middle" pointer-events="none" font-size="8px" fill="#000000" x="60.59656766177613" y="3" transform="rotate(180 60.59656766177613 0)" font-family="sans-serif">PART_OF</text></g><g class="relationship" transform="translate(559.7449695791563 -77.75535091851583) rotate(514.0909585170166)"><path class="outline" fill="#A5ABB6" stroke="none" d="M 32.5 0.5 L 40.474042832762024 0.5 L 40.474042832762024 -0.5 L 32.5 -0.5 Z M 85.60294908276202 0.5 L 93.57699191552405 0.5 L 93.57699191552405 3.5 L 100.57699191552405 0 L 93.57699191552405 -3.5 L 93.57699191552405 -0.5 L 85.60294908276202 -0.5 Z"/><text text-anchor="middle" pointer-events="none" font-size="8px" fill="#000000" x="63.038495957762024" y="3" transform="rotate(180 63.038495957762024 0)" font-family="sans-serif">SUPPLIES</text></g><g class="relationship" transform="translate(36.88229576926951 -40.783114026721194) rotate(210.77329085259805)"><path class="outline" fill="#A5ABB6" stroke="none" d="M 25 0.5 L 49.24906990072358 0.5 L 49.24906990072358 -0.5 L 25 -0.5 Z M 89.47563240072358 0.5 L 113.72470230144717 0.5 L 113.72470230144717 3.5 L 120.72470230144717 0 L 113.72470230144717 -3.5 L 113.72470230144717 -0.5 L 89.47563240072358 -0.5 Z"/><text text-anchor="middle" pointer-events="none" font-size="8px" fill="#000000" x="69.36235115072358" y="3" transform="rotate(180 69.36235115072358 0)" font-family="sans-serif">ORDERS</text></g><g class="relationship" transform="translate(36.88229576926951 -40.783114026721194) rotate(264.4727741832397)"><path class="outline" fill="#A5ABB6" stroke="none" d="M 25 0.5 L 46.21886840533264 0.5 L 46.21886840533264 -0.5 L 25 -0.5 Z M 86.44543090533264 0.5 L 107.66429931066529 0.5 L 107.66429931066529 3.5 L 114.66429931066529 0 L 107.66429931066529 -3.5 L 107.66429931066529 -0.5 L 86.44543090533264 -0.5 Z"/><text text-anchor="middle" pointer-events="none" font-size="8px" fill="#000000" x="66.33214965533264" y="3" transform="rotate(180 66.33214965533264 0)" font-family="sans-serif">ORDERS</text></g><g class="relationship" transform="translate(-94.76813842825628 -119.17936757859725) rotate(239.46389871948458)"><path class="outline" fill="#A5ABB6" stroke="none" d="M 32.5 0.5 L 44.6866807467964 0.5 L 44.6866807467964 -0.5 L 32.5 -0.5 Z M 86.8507432467964 0.5 L 99.0374239935928 0.5 L 99.0374239935928 3.5 L 106.0374239935928 0 L 99.0374239935928 -3.5 L 99.0374239935928 -0.5 L 86.8507432467964 -0.5 Z"/><text text-anchor="middle" pointer-events="none" font-size="8px" fill="#000000" x="65.7687119967964" y="3" transform="rotate(180 65.7687119967964 0)" font-family="sans-serif">PART_OF</text></g><g class="relationship" transform="translate(-227.0233636949617 -160.0618431564018) rotate(377.17732235866674)"><path class="outline" fill="#A5ABB6" stroke="none" d="M 32.5 0.5 L 43.150468351002516 0.5 L 43.150468351002516 -0.5 L 32.5 -0.5 Z M 88.27937460100252 0.5 L 98.92984295200503 0.5 L 98.92984295200503 3.5 L 105.92984295200503 0 L 98.92984295200503 -3.5 L 98.92984295200503 -0.5 L 88.27937460100252 -0.5 Z"/><text text-anchor="middle" pointer-events="none" font-size="8px" fill="#000000" x="65.71492147600252" y="3" font-family="sans-serif">SUPPLIES</text></g><g class="relationship" transform="translate(22.707616741632773 -187.26317910747736) rotate(331.9041541471412)"><path class="outline" fill="#A5ABB6" stroke="none" d="M 32.5 0.5 L 40.491507251133164 0.5 L 40.491507251133164 -0.5 L 32.5 -0.5 Z M 82.65556975113316 0.5 L 90.64707700226633 0.5 L 90.64707700226633 3.5 L 97.64707700226633 0 L 90.64707700226633 -3.5 L 90.64707700226633 -0.5 L 82.65556975113316 -0.5 Z"/><text text-anchor="middle" pointer-events="none" font-size="8px" fill="#000000" x="61.573538501133164" y="3" font-family="sans-serif">PART_OF</text></g><g class="relationship" transform="translate(-20.505614783149294 -318.4061493515797) rotate(431.7623088457395)"><path class="outline" fill="#A5ABB6" stroke="none" d="M 32.5 0.5 L 42.97514062970704 0.5 L 42.97514062970704 -0.5 L 32.5 -0.5 Z M 88.10404687970704 0.5 L 98.57918750941408 0.5 L 98.57918750941408 3.5 L 105.57918750941408 0 L 98.57918750941408 -3.5 L 98.57918750941408 -0.5 L 88.10404687970704 -0.5 Z"/><text text-anchor="middle" pointer-events="none" font-size="8px" fill="#000000" x="65.53959375470704" y="3" font-family="sans-serif">SUPPLIES</text></g><g class="relationship" transform="translate(222.4652051455087 2.139251086969459) rotate(310.97794282315255)"><path class="outline" fill="#A5ABB6" stroke="none" d="M 25 0.5 L 43.52590989222617 0.5 L 43.52590989222617 -0.5 L 25 -0.5 Z M 83.75247239222617 0.5 L 102.27838228445233 0.5 L 102.27838228445233 3.5 L 109.27838228445233 0 L 102.27838228445233 -3.5 L 102.27838228445233 -0.5 L 83.75247239222617 -0.5 Z"/><text text-anchor="middle" pointer-events="none" font-size="8px" fill="#000000" x="63.63919114222617" y="3" font-family="sans-serif">ORDERS</text></g><g class="relationship" transform="translate(222.4652051455087 2.139251086969459) rotate(276.2622875706958)"><path class="outline" fill="#A5ABB6" stroke="none" d="M 25 0.5 L 56.388928943882235 0.5 L 56.388928943882235 -0.5 L 25 -0.5 Z M 96.61549144388223 0.5 L 128.00442038776447 0.5 L 128.00442038776447 3.5 L 135.00442038776447 0 L 128.00442038776447 -3.5 L 128.00442038776447 -0.5 L 96.61549144388223 -0.5 Z"/><text text-anchor="middle" pointer-events="none" font-size="8px" fill="#000000" x="76.50221019388223" y="3" font-family="sans-serif">ORDERS</text></g><g class="relationship" transform="translate(222.4652051455087 2.139251086969459) rotate(423.7494721293964)"><path class="outline" fill="#A5ABB6" stroke="none" d="M 25 0.5 L 79.33860654636892 0.5 L 79.33860654636892 -0.5 L 25 -0.5 Z M 119.56516904636892 0.5 L 173.90377559273784 0.5 L 173.90377559273784 3.5 L 180.90377559273784 0 L 173.90377559273784 -3.5 L 173.90377559273784 -0.5 L 119.56516904636892 -0.5 Z"/><text text-anchor="middle" pointer-events="none" font-size="8px" fill="#000000" x="99.45188779636892" y="3" font-family="sans-serif">ORDERS</text></g><g class="relationship" transform="translate(315.43899366015484 -104.8980523750954) rotate(343.7222396653475)"><path class="outline" fill="#A5ABB6" stroke="none" d="M 32.5 0.5 L 42.22924488028079 0.5 L 42.22924488028079 -0.5 L 32.5 -0.5 Z M 84.39330738028079 0.5 L 94.12255226056158 0.5 L 94.12255226056158 3.5 L 101.12255226056158 0 L 94.12255226056158 -3.5 L 94.12255226056158 -0.5 L 84.39330738028079 -0.5 Z"/><text text-anchor="middle" pointer-events="none" font-size="8px" fill="#000000" x="63.31127613028079" y="3" font-family="sans-serif">PART_OF</text></g><g class="relationship" transform="translate(363.87210169701984 -237.81184832157243) rotate(470.0214818579733)"><path class="outline" fill="#A5ABB6" stroke="none" d="M 32.5 0.5 L 44.6671577484496 0.5 L 44.6671577484496 -0.5 L 32.5 -0.5 Z M 89.7960639984496 0.5 L 101.9632217468992 0.5 L 101.9632217468992 3.5 L 108.9632217468992 0 L 101.9632217468992 -3.5 L 101.9632217468992 -0.5 L 89.7960639984496 -0.5 Z"/><text text-anchor="middle" pointer-events="none" font-size="8px" fill="#000000" x="67.2316108734496" y="3" transform="rotate(180 67.2316108734496 0)" font-family="sans-serif">SUPPLIES</text></g><g class="relationship" transform="translate(240.7365967424132 -164.36566505232503) rotate(216.29201353542794)"><path class="outline" fill="#A5ABB6" stroke="none" d="M 32.5 0.5 L 47.30260843223709 0.5 L 47.30260843223709 -0.5 L 32.5 -0.5 Z M 89.4666709322371 0.5 L 104.26927936447419 0.5 L 104.26927936447419 3.5 L 111.26927936447419 0 L 104.26927936447419 -3.5 L 104.26927936447419 -0.5 L 89.4666709322371 -0.5 Z"/><text text-anchor="middle" pointer-events="none" font-size="8px" fill="#000000" x="68.3846396822371" y="3" transform="rotate(180 68.3846396822371 0)" font-family="sans-serif">PART_OF</text></g><g class="relationship" transform="translate(239.5606428310578 -306.0038456216677) rotate(449.52431154035673)"><path class="outline" fill="#A5ABB6" stroke="none" d="M 32.5 0.5 L 44.75707796300203 0.5 L 44.75707796300203 -0.5 L 32.5 -0.5 Z M 89.88598421300203 0.5 L 102.14306217600407 0.5 L 102.14306217600407 3.5 L 109.14306217600407 0 L 102.14306217600407 -3.5 L 102.14306217600407 -0.5 L 89.88598421300203 -0.5 Z"/><text text-anchor="middle" pointer-events="none" font-size="8px" fill="#000000" x="67.32153108800203" y="3" font-family="sans-serif">SUPPLIES</text></g><g class="relationship" transform="translate(-24.669608745400957 72.90629106455636) rotate(186.43167342035372)"><path class="outline" fill="#A5ABB6" stroke="none" d="M 25 0.5 L 53.754975274798056 0.5 L 53.754975274798056 -0.5 L 25 -0.5 Z M 93.98153777479806 0.5 L 122.73651304959611 0.5 L 122.73651304959611 3.5 L 129.7365130495961 0 L 122.73651304959611 -3.5 L 122.73651304959611 -0.5 L 93.98153777479806 -0.5 Z"/><text text-anchor="middle" pointer-events="none" font-size="8px" fill="#000000" x="73.86825652479806" y="3" transform="rotate(180 73.86825652479806 0)" font-family="sans-serif">ORDERS</text></g><g class="relationship" transform="translate(-185.8850289792855 54.732836651490416) rotate(208.15206753802943)"><path class="outline" fill="#A5ABB6" stroke="none" d="M 32.5 0.5 L 43.914102401422795 0.5 L 43.914102401422795 -0.5 L 32.5 -0.5 Z M 86.0781649014228 0.5 L 97.49226730284559 0.5 L 97.49226730284559 3.5 L 104.49226730284559 0 L 97.49226730284559 -3.5 L 97.49226730284559 -0.5 L 86.0781649014228 -0.5 Z"/><text text-anchor="middle" pointer-events="none" font-size="8px" fill="#000000" x="64.9961336514228" y="3" transform="rotate(180 64.9961336514228 0)" font-family="sans-serif">PART_OF</text></g><g class="relationship" transform="translate(-318.40070866050996 90.85143970920113) rotate(344.7537501065766)"><path class="outline" fill="#A5ABB6" stroke="none" d="M 32.5 0.5 L 42.61043101799903 0.5 L 42.61043101799903 -0.5 L 32.5 -0.5 Z M 87.73933726799903 0.5 L 97.84976828599807 0.5 L 97.84976828599807 3.5 L 104.84976828599807 0 L 97.84976828599807 -3.5 L 97.84976828599807 -0.5 L 87.73933726799903 -0.5 Z"/><text text-anchor="middle" pointer-events="none" font-size="8px" fill="#000000" x="65.17488414299903" y="3" font-family="sans-serif">SUPPLIES</text></g><g class="relationship" transform="translate(54.93680992986057 239.2486545379493) rotate(484.2423119887843)"><path class="outline" fill="#A5ABB6" stroke="none" d="M 25 0.5 L 52.61264322336969 0.5 L 52.61264322336969 -0.5 L 25 -0.5 Z M 92.83920572336969 0.5 L 120.45184894673937 0.5 L 120.45184894673937 3.5 L 127.45184894673937 0 L 120.45184894673937 -3.5 L 120.45184894673937 -0.5 L 92.83920572336969 -0.5 Z"/><text text-anchor="middle" pointer-events="none" font-size="8px" fill="#000000" x="72.72592447336969" y="3" transform="rotate(180 72.72592447336969 0)" font-family="sans-serif">ORDERS</text></g><g class="relationship" transform="translate(-35.067137344889666 371.4752912509978) rotate(418.1329525884255)"><path class="outline" fill="#A5ABB6" stroke="none" d="M 32.5 0.5 L 38.55296717674678 0.5 L 38.55296717674678 -0.5 L 32.5 -0.5 Z M 80.71702967674679 0.5 L 86.76999685349357 0.5 L 86.76999685349357 3.5 L 93.76999685349357 0 L 86.76999685349357 -3.5 L 86.76999685349357 -0.5 L 80.71702967674679 -0.5 Z"/><text text-anchor="middle" pointer-events="none" font-size="8px" fill="#000000" x="59.63499842674678" y="3" font-family="sans-serif">PART_OF</text></g><g class="relationship" transform="translate(-125.32817079498847 475.7154511647565) rotate(310.88912495264674)"><path class="outline" fill="#A5ABB6" stroke="none" d="M 32.5 0.5 L 42.879482609634834 0.5 L 42.879482609634834 -0.5 L 32.5 -0.5 Z M 88.00838885963483 0.5 L 98.38787146926967 0.5 L 98.38787146926967 3.5 L 105.38787146926967 0 L 98.38787146926967 -3.5 L 98.38787146926967 -0.5 L 88.00838885963483 -0.5 Z"/><text text-anchor="middle" pointer-events="none" font-size="8px" fill="#000000" x="65.44393573463483" y="3" font-family="sans-serif">SUPPLIES</text></g><g class="relationship" transform="translate(-12.899788582204978 170.21492570335195) rotate(513.3651095549861)"><path class="outline" fill="#A5ABB6" stroke="none" d="M 25 0.5 L 53.3757803128984 0.5 L 53.3757803128984 -0.5 L 25 -0.5 Z M 93.6023428128984 0.5 L 121.9781231257968 0.5 L 121.9781231257968 3.5 L 128.9781231257968 0 L 121.9781231257968 -3.5 L 121.9781231257968 -0.5 L 93.6023428128984 -0.5 Z"/><text text-anchor="middle" pointer-events="none" font-size="8px" fill="#000000" x="73.4890615628984" y="3" transform="rotate(180 73.4890615628984 0)" font-family="sans-serif">ORDERS</text></g><g class="relationship" transform="translate(-157.24208044374396 242.60613392913234) rotate(535.745491581305)"><path class="outline" fill="#A5ABB6" stroke="none" d="M 32.5 0.5 L 43.52207948484981 0.5 L 43.52207948484981 -0.5 L 32.5 -0.5 Z M 85.68614198484981 0.5 L 96.70822146969962 0.5 L 96.70822146969962 3.5 L 103.70822146969962 0 L 96.70822146969962 -3.5 L 96.70822146969962 -0.5 L 85.68614198484981 -0.5 Z"/><text text-anchor="middle" pointer-events="none" font-size="8px" fill="#000000" x="64.60411073484981" y="3" transform="rotate(180 64.60411073484981 0)" font-family="sans-serif">PART_OF</text></g><g class="relationship" transform="translate(-248.4063095683419 344.0736024792506) rotate(311.938353556671)"><path class="outline" fill="#A5ABB6" stroke="none" d="M 32.5 0.5 L 42.138486411818036 0.5 L 42.138486411818036 -0.5 L 32.5 -0.5 Z M 87.26739266181804 0.5 L 96.90587907363607 0.5 L 96.90587907363607 3.5 L 103.90587907363607 0 L 96.90587907363607 -3.5 L 96.90587907363607 -0.5 L 87.26739266181804 -0.5 Z"/><text text-anchor="middle" pointer-events="none" font-size="8px" fill="#000000" x="64.70293953681804" y="3" font-family="sans-serif">SUPPLIES</text></g></g><g class="layer nodes"><g class="node" transform="translate(138.33691924682566,103.96988154600223)"><circle class="outline" cx="0" cy="0" r="32.5" fill="#F16667" stroke="#eb2728" stroke-width="2px"/><text text-anchor="middle" pointer-events="none" font-family="sans-serif" dy="2.03125" font-size="32.5" fill="#FFFFFF"/><text text-anchor="middle" pointer-events="none" font-family="sans-serif" dy="2.03125" font-size="32.5" fill="#FFFFFF"/><text text-anchor="middle" pointer-events="none" y="0" font-size="10px" fill="#FFFFFF" font-family="sans-serif"> Blauer See</text><text text-anchor="middle" pointer-events="none" y="10" font-size="10px" fill="#FFFFFF" font-family="sans-serif"> Delikatessen</text></g><g class="node" transform="translate(387.2846148301191,388.92747638959963)"><circle class="outline" cx="0" cy="0" r="25" fill="#57C7E3" stroke="#23b3d7" stroke-width="2px"/><text text-anchor="middle" pointer-events="none" font-family="sans-serif" dy="1.5625" font-size="25" fill="#FFFFFF"/><text text-anchor="middle" pointer-events="none" y="5" font-size="10px" fill="#FFFFFF" font-family="sans-serif"> Confecti…</text></g><g class="node" transform="translate(198.7479686881458,253.26441941697166)"><circle class="outline" cx="0" cy="0" r="25" fill="#F79767" stroke="#f36924" stroke-width="2px"/><text text-anchor="middle" pointer-events="none" font-family="sans-serif" dy="1.5625" font-size="25" fill="#FFFFFF"/><text text-anchor="middle" pointer-events="none" y="5" font-size="10px" fill="#FFFFFF" font-family="sans-serif"> 10956</text></g><g class="node" transform="translate(268.53065723926477,375.3520926842081)"><circle class="outline" cx="0" cy="0" r="32.5" fill="#D9C8AE" stroke="#c0a378" stroke-width="2px"/><text text-anchor="middle" pointer-events="none" font-family="sans-serif" dy="2.03125" font-size="32.5" fill="#604A0E"/><text text-anchor="middle" pointer-events="none" font-family="sans-serif" dy="2.03125" font-size="32.5" fill="#604A0E"/><text text-anchor="middle" pointer-events="none" y="0" font-size="10px" fill="#604A0E" font-family="sans-serif"> Zaanse</text><text text-anchor="middle" pointer-events="none" y="10" font-size="10px" fill="#604A0E" font-family="sans-serif"> koeken</text></g><g class="node" transform="translate(302.2140629081282,507.35736991041233)"><circle class="outline" cx="0" cy="0" r="32.5" fill="#8DCC93" stroke="#5db665" stroke-width="2px"/><text text-anchor="middle" pointer-events="none" font-family="sans-serif" dy="2.03125" font-size="32.5" fill="#604A0E"/><text text-anchor="middle" pointer-events="none" font-family="sans-serif" dy="2.03125" font-size="32.5" fill="#604A0E"/><text text-anchor="middle" pointer-events="none" y="0" font-size="10px" fill="#604A0E" font-family="sans-serif"> Zaanse</text><text text-anchor="middle" pointer-events="none" y="10" font-size="10px" fill="#604A0E" font-family="sans-serif"> Snoepfabriek</text></g><g class="node" transform="translate(27.637479794997173,472.3437359793621)"><circle class="outline" cx="0" cy="0" r="25" fill="#57C7E3" stroke="#23b3d7" stroke-width="2px"/><text text-anchor="middle" pointer-events="none" font-family="sans-serif" dy="1.5625" font-size="25" fill="#FFFFFF"/><text text-anchor="middle" pointer-events="none" y="5" font-size="10px" fill="#FFFFFF" font-family="sans-serif"> Produce</text></g><g class="node" transform="translate(133.69152336279618,392.68441244862834)"><circle class="outline" cx="0" cy="0" r="32.5" fill="#D9C8AE" stroke="#c0a378" stroke-width="2px"/><text text-anchor="middle" pointer-events="none" font-family="sans-serif" dy="2.03125" font-size="32.5" fill="#604A0E"/><text text-anchor="middle" pointer-events="none" font-family="sans-serif" dy="2.03125" font-size="32.5" fill="#604A0E"/><text text-anchor="middle" pointer-events="none" y="0" font-size="10px" fill="#604A0E" font-family="sans-serif"> Manjimup</text><text text-anchor="middle" pointer-events="none" y="10" font-size="10px" fill="#604A0E" font-family="sans-serif"> Dried Apples</text></g><g class="node" transform="translate(129.2603147421576,531.797929043524)"><circle class="outline" cx="0" cy="0" r="32.5" fill="#8DCC93" stroke="#5db665" stroke-width="2px"/><text text-anchor="middle" pointer-events="none" font-family="sans-serif" dy="2.03125" font-size="32.5" fill="#604A0E"/><text text-anchor="middle" pointer-events="none" y="5" font-size="10px" fill="#604A0E" font-family="sans-serif"> G'day</text></g><g class="node" transform="translate(316.853044883145,193.53441076165376)"><circle class="outline" cx="0" cy="0" r="32.5" fill="#D9C8AE" stroke="#c0a378" stroke-width="2px"/><text text-anchor="middle" pointer-events="none" font-family="sans-serif" dy="2.03125" font-size="32.5" fill="#604A0E"/><text text-anchor="middle" pointer-events="none" font-family="sans-serif" dy="2.03125" font-size="32.5" fill="#604A0E"/><text text-anchor="middle" pointer-events="none" y="0" font-size="10px" fill="#604A0E" font-family="sans-serif"> Sir Rodney's</text><text text-anchor="middle" pointer-events="none" y="10" font-size="10px" fill="#604A0E" font-family="sans-serif"> Scones</text></g><g class="node" transform="translate(501.2273392687697,340.601437658388)"><circle class="outline" cx="0" cy="0" r="32.5" fill="#8DCC93" stroke="#5db665" stroke-width="2px"/><text text-anchor="middle" pointer-events="none" font-family="sans-serif" dy="2.03125" font-size="32.5" fill="#604A0E"/><text text-anchor="middle" pointer-events="none" font-family="sans-serif" dy="2.03125" font-size="32.5" fill="#604A0E"/><text text-anchor="middle" pointer-events="none" y="0" font-size="10px" fill="#604A0E" font-family="sans-serif"> Specialty</text><text text-anchor="middle" pointer-events="none" y="10" font-size="10px" fill="#604A0E" font-family="sans-serif"> Biscuits</text></g><g class="node" transform="translate(552.3145030427735,200.6295452445746)"><circle class="outline" cx="0" cy="0" r="25" fill="#57C7E3" stroke="#23b3d7" stroke-width="2px"/><text text-anchor="middle" pointer-events="none" font-family="sans-serif" dy="1.5625" font-size="25" fill="#FFFFFF"/><text text-anchor="middle" pointer-events="none" y="5" font-size="10px" fill="#FFFFFF" font-family="sans-serif"> Condim…</text></g><g class="node" transform="translate(334.2963284372349,67.71411897253174)"><circle class="outline" cx="0" cy="0" r="25" fill="#F79767" stroke="#f36924" stroke-width="2px"/><text text-anchor="middle" pointer-events="none" font-family="sans-serif" dy="1.5625" font-size="25" fill="#FFFFFF"/><text text-anchor="middle" pointer-events="none" y="5" font-size="10px" fill="#FFFFFF" font-family="sans-serif"> 11058</text></g><g class="node" transform="translate(459.3910119866134,118.30560672048836)"><circle class="outline" cx="0" cy="0" r="32.5" fill="#D9C8AE" stroke="#c0a378" stroke-width="2px"/><text text-anchor="middle" pointer-events="none" font-family="sans-serif" dy="2.03125" font-size="32.5" fill="#604A0E"/><text text-anchor="middle" pointer-events="none" y="5" font-size="10px" fill="#604A0E" font-family="sans-serif"> Sirop d'érable</text></g><g class="node" transform="translate(589.6012699371184,98.11307580133216)"><circle class="outline" cx="0" cy="0" r="32.5" fill="#8DCC93" stroke="#5db665" stroke-width="2px"/><text text-anchor="middle" pointer-events="none" font-family="sans-serif" dy="2.03125" font-size="32.5" fill="#604A0E"/><text text-anchor="middle" pointer-events="none" font-family="sans-serif" dy="2.03125" font-size="32.5" fill="#604A0E"/><text text-anchor="middle" pointer-events="none" y="0" font-size="10px" fill="#604A0E" font-family="sans-serif"> Forêts</text><text text-anchor="middle" pointer-events="none" y="10" font-size="10px" fill="#604A0E" font-family="sans-serif"> d'érables</text></g><g class="node" transform="translate(436.5058177179269,-140.2494639633552)"><circle class="outline" cx="0" cy="0" r="25" fill="#57C7E3" stroke="#23b3d7" stroke-width="2px"/><text text-anchor="middle" pointer-events="none" font-family="sans-serif" dy="1.5625" font-size="25" fill="#FFFFFF"/><text text-anchor="middle" pointer-events="none" font-family="sans-serif" dy="1.5625" font-size="25" fill="#FFFFFF"/><text text-anchor="middle" pointer-events="none" y="0" font-size="10px" fill="#FFFFFF" font-family="sans-serif"> Dairy</text><text text-anchor="middle" pointer-events="none" y="10" font-size="10px" fill="#FFFFFF" font-family="sans-serif"> Products</text></g><g class="node" transform="translate(440.0437006447795,-19.608192838481923)"><circle class="outline" cx="0" cy="0" r="32.5" fill="#D9C8AE" stroke="#c0a378" stroke-width="2px"/><text text-anchor="middle" pointer-events="none" font-family="sans-serif" dy="2.03125" font-size="32.5" fill="#604A0E"/><text text-anchor="middle" pointer-events="none" font-family="sans-serif" dy="2.03125" font-size="32.5" fill="#604A0E"/><text text-anchor="middle" pointer-events="none" y="0" font-size="10px" fill="#604A0E" font-family="sans-serif"> Camembert</text><text text-anchor="middle" pointer-events="none" y="10" font-size="10px" fill="#604A0E" font-family="sans-serif"> Pierrot</text></g><g class="node" transform="translate(559.7449695791563,-77.75535091851583)"><circle class="outline" cx="0" cy="0" r="32.5" fill="#8DCC93" stroke="#5db665" stroke-width="2px"/><text text-anchor="middle" pointer-events="none" font-family="sans-serif" dy="2.03125" font-size="32.5" fill="#604A0E"/><text text-anchor="middle" pointer-events="none" y="5" font-size="10px" fill="#604A0E" font-family="sans-serif"> Gai pâturage</text></g><g class="node" transform="translate(-161.3457851848609,-232.04310595026996)"><circle class="outline" cx="0" cy="0" r="25" fill="#57C7E3" stroke="#23b3d7" stroke-width="2px"/><text text-anchor="middle" pointer-events="none" font-family="sans-serif" dy="1.5625" font-size="25" fill="#FFFFFF"/><text text-anchor="middle" pointer-events="none" y="5" font-size="10px" fill="#FFFFFF" font-family="sans-serif"> Grains/…</text></g><g class="node" transform="translate(36.88229576926951,-40.783114026721194)"><circle class="outline" cx="0" cy="0" r="25" fill="#F79767" stroke="#f36924" stroke-width="2px"/><text text-anchor="middle" pointer-events="none" font-family="sans-serif" dy="1.5625" font-size="25" fill="#FFFFFF"/><text text-anchor="middle" pointer-events="none" y="5" font-size="10px" fill="#FFFFFF" font-family="sans-serif"> 10582</text></g><g class="node" transform="translate(-94.76813842825628,-119.17936757859725)"><circle class="outline" cx="0" cy="0" r="32.5" fill="#D9C8AE" stroke="#c0a378" stroke-width="2px"/><text text-anchor="middle" pointer-events="none" font-family="sans-serif" dy="2.03125" font-size="32.5" fill="#604A0E"/><text text-anchor="middle" pointer-events="none" font-family="sans-serif" dy="2.03125" font-size="32.5" fill="#604A0E"/><text text-anchor="middle" pointer-events="none" y="0" font-size="10px" fill="#604A0E" font-family="sans-serif"> Ravioli</text><text text-anchor="middle" pointer-events="none" y="10" font-size="10px" fill="#604A0E" font-family="sans-serif"> Angelo</text></g><g class="node" transform="translate(-227.0233636949617,-160.0618431564018)"><circle class="outline" cx="0" cy="0" r="32.5" fill="#8DCC93" stroke="#5db665" stroke-width="2px"/><text text-anchor="middle" pointer-events="none" font-family="sans-serif" dy="2.03125" font-size="32.5" fill="#604A0E"/><text text-anchor="middle" pointer-events="none" font-family="sans-serif" dy="2.03125" font-size="32.5" fill="#604A0E"/><text text-anchor="middle" pointer-events="none" y="0" font-size="10px" fill="#604A0E" font-family="sans-serif"> Pasta Buttini</text><text text-anchor="middle" pointer-events="none" y="10" font-size="10px" fill="#604A0E" font-family="sans-serif"> s.r.l.</text></g><g class="node" transform="translate(130.90208652101063,-245.023565241567)"><circle class="outline" cx="0" cy="0" r="25" fill="#57C7E3" stroke="#23b3d7" stroke-width="2px"/><text text-anchor="middle" pointer-events="none" font-family="sans-serif" dy="1.5625" font-size="25" fill="#FFFFFF"/><text text-anchor="middle" pointer-events="none" y="5" font-size="10px" fill="#FFFFFF" font-family="sans-serif"> Beverag…</text></g><g class="node" transform="translate(22.707616741632773,-187.26317910747736)"><circle class="outline" cx="0" cy="0" r="32.5" fill="#D9C8AE" stroke="#c0a378" stroke-width="2px"/><text text-anchor="middle" pointer-events="none" font-family="sans-serif" dy="2.03125" font-size="32.5" fill="#604A0E"/><text text-anchor="middle" pointer-events="none" y="5" font-size="10px" fill="#604A0E" font-family="sans-serif"> Lakkalikööri</text></g><g class="node" transform="translate(-20.505614783149294,-318.4061493515797)"><circle class="outline" cx="0" cy="0" r="32.5" fill="#8DCC93" stroke="#5db665" stroke-width="2px"/><text text-anchor="middle" pointer-events="none" font-family="sans-serif" dy="2.03125" font-size="32.5" fill="#604A0E"/><text text-anchor="middle" pointer-events="none" y="5" font-size="10px" fill="#604A0E" font-family="sans-serif"> Karkki Oy</text></g><g class="node" transform="translate(222.4652051455087,2.139251086969459)"><circle class="outline" cx="0" cy="0" r="25" fill="#F79767" stroke="#f36924" stroke-width="2px"/><text text-anchor="middle" pointer-events="none" font-family="sans-serif" dy="1.5625" font-size="25" fill="#FFFFFF"/><text text-anchor="middle" pointer-events="none" y="5" font-size="10px" fill="#FFFFFF" font-family="sans-serif"> 10614</text></g><g class="node" transform="translate(315.43899366015484,-104.8980523750954)"><circle class="outline" cx="0" cy="0" r="32.5" fill="#D9C8AE" stroke="#c0a378" stroke-width="2px"/><text text-anchor="middle" pointer-events="none" font-family="sans-serif" dy="2.03125" font-size="32.5" fill="#604A0E"/><text text-anchor="middle" pointer-events="none" font-family="sans-serif" dy="2.03125" font-size="32.5" fill="#604A0E"/><text text-anchor="middle" pointer-events="none" y="0" font-size="10px" fill="#604A0E" font-family="sans-serif"> Queso</text><text text-anchor="middle" pointer-events="none" y="10" font-size="10px" fill="#604A0E" font-family="sans-serif"> Cabrales</text></g><g class="node" transform="translate(363.87210169701984,-237.81184832157243)"><circle class="outline" cx="0" cy="0" r="32.5" fill="#8DCC93" stroke="#5db665" stroke-width="2px"/><text text-anchor="middle" pointer-events="none" font-family="sans-serif" dy="2.03125" font-size="32.5" fill="#604A0E"/><text text-anchor="middle" pointer-events="none" font-family="sans-serif" dy="2.03125" font-size="32.5" fill="#604A0E"/><text text-anchor="middle" pointer-events="none" font-family="sans-serif" dy="2.03125" font-size="32.5" fill="#604A0E"/><text text-anchor="middle" pointer-events="none" y="-5" font-size="10px" fill="#604A0E" font-family="sans-serif"> Cooperativa</text><text text-anchor="middle" pointer-events="none" y="5" font-size="10px" fill="#604A0E" font-family="sans-serif"> de Quesos</text><text text-anchor="middle" pointer-events="none" y="15" font-size="10px" fill="#604A0E" font-family="sans-serif"> 'Las Cabr…</text></g><g class="node" transform="translate(240.7365967424132,-164.36566505232503)"><circle class="outline" cx="0" cy="0" r="32.5" fill="#D9C8AE" stroke="#c0a378" stroke-width="2px"/><text text-anchor="middle" pointer-events="none" font-family="sans-serif" dy="2.03125" font-size="32.5" fill="#604A0E"/><text text-anchor="middle" pointer-events="none" font-family="sans-serif" dy="2.03125" font-size="32.5" fill="#604A0E"/><text text-anchor="middle" pointer-events="none" y="0" font-size="10px" fill="#604A0E" font-family="sans-serif"> Chartreuse</text><text text-anchor="middle" pointer-events="none" y="10" font-size="10px" fill="#604A0E" font-family="sans-serif"> verte</text></g><g class="node" transform="translate(239.5606428310578,-306.0038456216677)"><circle class="outline" cx="0" cy="0" r="32.5" fill="#8DCC93" stroke="#5db665" stroke-width="2px"/><text text-anchor="middle" pointer-events="none" font-family="sans-serif" dy="2.03125" font-size="32.5" fill="#604A0E"/><text text-anchor="middle" pointer-events="none" font-family="sans-serif" dy="2.03125" font-size="32.5" fill="#604A0E"/><text text-anchor="middle" pointer-events="none" y="0" font-size="10px" fill="#604A0E" font-family="sans-serif"> Aux joyeux</text><text text-anchor="middle" pointer-events="none" y="10" font-size="10px" fill="#604A0E" font-family="sans-serif"> ecclésiastiq…</text></g><g class="node" transform="translate(-300.0581629112471,-6.363339819594644)"><circle class="outline" cx="0" cy="0" r="25" fill="#57C7E3" stroke="#23b3d7" stroke-width="2px"/><text text-anchor="middle" pointer-events="none" font-family="sans-serif" dy="1.5625" font-size="25" fill="#FFFFFF"/><text text-anchor="middle" pointer-events="none" y="5" font-size="10px" fill="#FFFFFF" font-family="sans-serif"> Meat/Po…</text></g><g class="node" transform="translate(-24.669608745400957,72.90629106455636)"><circle class="outline" cx="0" cy="0" r="25" fill="#F79767" stroke="#f36924" stroke-width="2px"/><text text-anchor="middle" pointer-events="none" font-family="sans-serif" dy="1.5625" font-size="25" fill="#FFFFFF"/><text text-anchor="middle" pointer-events="none" y="5" font-size="10px" fill="#FFFFFF" font-family="sans-serif"> 10501</text></g><g class="node" transform="translate(-185.8850289792855,54.732836651490416)"><circle class="outline" cx="0" cy="0" r="32.5" fill="#D9C8AE" stroke="#c0a378" stroke-width="2px"/><text text-anchor="middle" pointer-events="none" font-family="sans-serif" dy="2.03125" font-size="32.5" fill="#604A0E"/><text text-anchor="middle" pointer-events="none" y="5" font-size="10px" fill="#604A0E" font-family="sans-serif"> Tourtière</text></g><g class="node" transform="translate(-318.40070866050996,90.85143970920113)"><circle class="outline" cx="0" cy="0" r="32.5" fill="#8DCC93" stroke="#5db665" stroke-width="2px"/><text text-anchor="middle" pointer-events="none" font-family="sans-serif" dy="2.03125" font-size="32.5" fill="#604A0E"/><text text-anchor="middle" pointer-events="none" y="5" font-size="10px" fill="#604A0E" font-family="sans-serif"> Ma Maison</text></g><g class="node" transform="translate(54.93680992986057,239.2486545379493)"><circle class="outline" cx="0" cy="0" r="25" fill="#F79767" stroke="#f36924" stroke-width="2px"/><text text-anchor="middle" pointer-events="none" font-family="sans-serif" dy="1.5625" font-size="25" fill="#FFFFFF"/><text text-anchor="middle" pointer-events="none" y="5" font-size="10px" fill="#FFFFFF" font-family="sans-serif"> 10509</text></g><g class="node" transform="translate(-35.067137344889666,371.4752912509978)"><circle class="outline" cx="0" cy="0" r="32.5" fill="#D9C8AE" stroke="#c0a378" stroke-width="2px"/><text text-anchor="middle" pointer-events="none" font-family="sans-serif" dy="2.03125" font-size="32.5" fill="#604A0E"/><text text-anchor="middle" pointer-events="none" font-family="sans-serif" dy="2.03125" font-size="32.5" fill="#604A0E"/><text text-anchor="middle" pointer-events="none" y="0" font-size="10px" fill="#604A0E" font-family="sans-serif"> Rössle</text><text text-anchor="middle" pointer-events="none" y="10" font-size="10px" fill="#604A0E" font-family="sans-serif"> Sauerkraut</text></g><g class="node" transform="translate(-125.32817079498847,475.7154511647565)"><circle class="outline" cx="0" cy="0" r="32.5" fill="#8DCC93" stroke="#5db665" stroke-width="2px"/><text text-anchor="middle" pointer-events="none" font-family="sans-serif" dy="2.03125" font-size="32.5" fill="#604A0E"/><text text-anchor="middle" pointer-events="none" font-family="sans-serif" dy="2.03125" font-size="32.5" fill="#604A0E"/><text text-anchor="middle" pointer-events="none" y="0" font-size="10px" fill="#604A0E" font-family="sans-serif"> Plutzer</text><text text-anchor="middle" pointer-events="none" y="10" font-size="10px" fill="#604A0E" font-family="sans-serif"> Lebensmitt…</text></g><g class="node" transform="translate(-285.5956271873755,252.15460565101762)"><circle class="outline" cx="0" cy="0" r="25" fill="#57C7E3" stroke="#23b3d7" stroke-width="2px"/><text text-anchor="middle" pointer-events="none" font-family="sans-serif" dy="1.5625" font-size="25" fill="#FFFFFF"/><text text-anchor="middle" pointer-events="none" y="5" font-size="10px" fill="#FFFFFF" font-family="sans-serif"> Seafood</text></g><g class="node" transform="translate(-12.899788582204978,170.21492570335195)"><circle class="outline" cx="0" cy="0" r="25" fill="#F79767" stroke="#f36924" stroke-width="2px"/><text text-anchor="middle" pointer-events="none" font-family="sans-serif" dy="1.5625" font-size="25" fill="#FFFFFF"/><text text-anchor="middle" pointer-events="none" y="5" font-size="10px" fill="#FFFFFF" font-family="sans-serif"> 10853</text></g><g class="node" transform="translate(-157.24208044374396,242.60613392913234)"><circle class="outline" cx="0" cy="0" r="32.5" fill="#D9C8AE" stroke="#c0a378" stroke-width="2px"/><text text-anchor="middle" pointer-events="none" font-family="sans-serif" dy="2.03125" font-size="32.5" fill="#604A0E"/><text text-anchor="middle" pointer-events="none" font-family="sans-serif" dy="2.03125" font-size="32.5" fill="#604A0E"/><text text-anchor="middle" pointer-events="none" y="0" font-size="10px" fill="#604A0E" font-family="sans-serif"> Carnarvon</text><text text-anchor="middle" pointer-events="none" y="10" font-size="10px" fill="#604A0E" font-family="sans-serif"> Tigers</text></g><g class="node" transform="translate(-248.4063095683419,344.0736024792506)"><circle class="outline" cx="0" cy="0" r="32.5" fill="#8DCC93" stroke="#5db665" stroke-width="2px"/><text text-anchor="middle" pointer-events="none" font-family="sans-serif" dy="2.03125" font-size="32.5" fill="#604A0E"/><text text-anchor="middle" pointer-events="none" y="5" font-size="10px" fill="#604A0E" font-family="sans-serif"> Pavlova</text></g></g></svg>