<svg xmlns="http://www.w3.org/2000/svg" width="383.10052490234375" height="269.1498107910156" viewBox="-415.5520935058594 -35.78042221069336 383.10052490234375 269.1498107910156"><title>Neo4j Graph Visualization</title><desc>Created using Neo4j (http://www.neo4j.com/)</desc><g class="layer relationships"><g class="relationship" transform="translate(-214.35112145950964 96.90355446722445) rotate(360.0307118683968)"><path class="outline" fill="#A5ABB6" stroke="none" d="M 25 0.5 L 52.836497873700154 0.5 L 52.836497873700154 -0.5 L 25 -0.5 Z M 93.06306037370015 0.5 L 120.89955824740031 0.5 L 120.89955824740031 3.5 L 127.89955824740031 0 L 120.89955824740031 -3.5 L 120.89955824740031 -0.5 L 93.06306037370015 -0.5 Z"/><text text-anchor="middle" pointer-events="none" font-size="8px" fill="#000000" x="72.94977912370015" y="3" font-family="sans-serif">ORDERS</text></g><g class="relationship" transform="translate(-61.45158517772779 96.98551217730113) rotate(214.79809290334674)"><path class="outline" fill="#A5ABB6" stroke="none" d="M 25 0.5 L 66.3312666758996 0.5 L 66.3312666758996 -0.5 L 25 -0.5 Z M 108.4953291758996 0.5 L 149.8265958517992 0.5 L 149.8265958517992 3.5 L 156.8265958517992 0 L 149.8265958517992 -3.5 L 149.8265958517992 -0.5 L 108.4953291758996 -0.5 Z"/><text text-anchor="middle" pointer-events="none" font-size="8px" fill="#000000" x="87.4132979258996" y="3" transform="rotate(180 87.4132979258996 0)" font-family="sans-serif">PART_OF</text></g><g class="relationship" transform="translate(-213.0562354706865 204.3693784356836) rotate(324.68948141143426)"><path class="outline" fill="#A5ABB6" stroke="none" d="M 25 0.5 L 66.82696833447665 0.5 L 66.82696833447665 -0.5 L 25 -0.5 Z M 111.95587458447665 0.5 L 153.7828429189533 0.5 L 153.7828429189533 3.5 L 160.7828429189533 0 L 153.7828429189533 -3.5 L 153.7828429189533 -0.5 L 111.95587458447665 -0.5 Z"/><text text-anchor="middle" pointer-events="none" font-size="8px" fill="#000000" x="89.39142145947665" y="3" font-family="sans-serif">SUPPLIES</text></g><g class="relationship" transform="translate(-386.5520814334645 96.07276425381069) rotate(360.276423566863)"><path class="outline" fill="#A5ABB6" stroke="none" d="M 25 0.5 L 54.48624765105211 0.5 L 54.48624765105211 -0.5 L 25 -0.5 Z M 110.71671640105211 0.5 L 140.20296405210422 0.5 L 140.20296405210422 3.5 L 147.20296405210422 0 L 140.20296405210422 -3.5 L 140.20296405210422 -0.5 L 110.71671640105211 -0.5 Z"/><text text-anchor="middle" pointer-events="none" font-size="8px" fill="#000000" x="82.60148202605211" y="3" font-family="sans-serif">PURCHASED</text></g></g><g class="layer nodes"><g class="node" transform="translate(-214.35112145950964,96.90355446722445)"><circle class="outline" cx="0" cy="0" r="25" fill="#F79767" stroke="#f36924" stroke-width="2px"/><text text-anchor="middle" pointer-events="none" font-family="sans-serif" dy="1.5625" font-size="25" fill="#FFFFFF"/><text text-anchor="middle" pointer-events="none" y="5" font-size="10px" fill="#FFFFFF" font-family="sans-serif"> Order</text></g><g class="node" transform="translate(-210.76180450478932,-6.78042329074303)"><circle class="outline" cx="0" cy="0" r="25" fill="#57C7E3" stroke="#23b3d7" stroke-width="2px"/><text text-anchor="middle" pointer-events="none" font-family="sans-serif" dy="1.5625" font-size="25" fill="#FFFFFF"/><text text-anchor="middle" pointer-events="none" y="5" font-size="10px" fill="#FFFFFF" font-family="sans-serif"> Category</text></g><g class="node" transform="translate(-386.5520814334645,96.07276425381069)"><circle class="outline" cx="0" cy="0" r="25" fill="#F16667" stroke="#eb2728" stroke-width="2px"/><text text-anchor="middle" pointer-events="none" font-family="sans-serif" dy="1.5625" font-size="25" fill="#FFFFFF"/><text text-anchor="middle" pointer-events="none" y="5" font-size="10px" fill="#FFFFFF" font-family="sans-serif"> Customer</text></g><g class="node" transform="translate(-61.45158517772779,96.98551217730113)"><circle class="outline" cx="0" cy="0" r="25" fill="#D9C8AE" stroke="#c0a378" stroke-width="2px"/><text text-anchor="middle" pointer-events="none" font-family="sans-serif" dy="1.5625" font-size="25" fill="#604A0E"/><text text-anchor="middle" pointer-events="none" y="5" font-size="10px" fill="#604A0E" font-family="sans-serif"> Product</text></g><g class="node" transform="translate(-213.0562354706865,204.3693784356836)"><circle class="outline" cx="0" cy="0" r="25" fill="#8DCC93" stroke="#5db665" stroke-width="2px"/><text text-anchor="middle" pointer-events="none" font-family="sans-serif" dy="1.5625" font-size="25" fill="#604A0E"/><text text-anchor="middle" pointer-events="none" y="5" font-size="10px" fill="#604A0E" font-family="sans-serif"> Supplier</text></g></g></svg>